<?xml version="1.0" encoding="iso-8859-1"?>
<!DOCTYPE svg PUBLIC "-//W3C//DTD SVG 1.1//EN" "http://www.w3.org/Graphics/SVG/1.1/DTD/svg11.dtd">
<svg xmlns="http://www.w3.org/2000/svg" xmlns:xlink="http://www.w3.org/1999/xlink" viewBox="0 0 480 480">
  <defs>
    <style>.countryselect-cls-1{fill:url(#linear-gradient);}.countryselect-cls-2{fill:#fff;}</style>
    <linearGradient id="linear-gradient" x1="70.29" y1="411.71" x2="409.71" y2="72.29" gradientTransform="matrix(1, 0, 0, -1, 0, 482)" gradientUnits="userSpaceOnUse">
      <stop offset="0" stop-color="#81FBB8"/>
      <stop offset="1" stop-color="#28C76F"/>
    </linearGradient>
  </defs>
  <title>country-select</title>
  <circle class="countryselect-cls-1" cx="240" cy="240" r="240"/>
  <path class="countryselect-cls-2" d="M113.66,261.87h39a90.57,90.57,0,0,1,0-43.74h-39a9.72,9.72,0,0,0-9.71,9.72v24.3A9.72,9.72,0,0,0,113.66,261.87Z"/>
  <path class="countryselect-cls-2" d="M366.34,296.27h-56.1a90,90,0,0,1-140.48,0h-56.1A9.72,9.72,0,0,0,104,306v24.29a9.72,9.72,0,0,0,9.71,9.72H366.34a9.72,9.72,0,0,0,9.71-9.72V306A9.72,9.72,0,0,0,366.34,296.27Z"/>
  <path class="countryselect-cls-2" d="M366.34,218.13h-39a90.57,90.57,0,0,1,0,43.74h39a9.72,9.72,0,0,0,9.71-9.72v-24.3A9.72,9.72,0,0,0,366.34,218.13Z"/>
  <path class="countryselect-cls-2" d="M366.34,140H113.66a9.72,9.72,0,0,0-9.71,9.72V174a9.72,9.72,0,0,0,9.71,9.72h56.1a90,90,0,0,1,140.48,0h56.1a9.72,9.72,0,0,0,9.71-9.72V149.72A9.72,9.72,0,0,0,366.34,140Z"/>
  <path class="countryselect-cls-2" d="M310,240a70,70,0,1,0-70,70A70,70,0,0,0,310,240Zm-11.75,18.07H270.18a115.22,115.22,0,0,0,0-36.13h28.05A61.38,61.38,0,0,1,298.25,258.07ZM240,300.52c-8.67-7.83-15.28-19.6-19-33.42H259C255.28,280.89,248.67,292.69,240,300.52Zm-21-42.45a106.9,106.9,0,0,1,0-36.13H261a106.39,106.39,0,0,1,0,36.13Zm21-78.58c9.47,8.56,15.68,21.16,19,33.42H221C224.33,200.58,230.56,188,240,179.49Zm54.6,33.42H268.35c-3.09-12.46-8.29-23.62-15.21-32.44A61,61,0,0,1,294.6,212.9Zm-67.8-32.44c-6.92,8.82-12.12,20-15.21,32.44H185.4a61,61,0,0,1,41.43-32.45ZM181.72,222h28.05a115.16,115.16,0,0,0,0,36.12h-28a61.33,61.33,0,0,1,0-36.14Zm3.68,45.15h26.29c3.1,12.46,8.32,23.66,15.19,32.45A61.05,61.05,0,0,1,185.4,267.1Zm67.78,32.45c6.88-8.79,12.09-20,15.19-32.45H294.6a61.06,61.06,0,0,1-41.45,32.45Z"/>
</svg>
