<?xml version="1.0" encoding="iso-8859-1"?>
<svg xmlns="http://www.w3.org/2000/svg" viewBox="0 0 480 480">
  <defs>
    <style>.countryselect-cls-1{fill:#0d7e83;}.countryselect-cls-2{fill:#fff;}</style>
  </defs>
  <title>icon</title>
  <circle class="countryselect-cls-1" cx="240" cy="240" r="240"/>
  <path class="countryselect-cls-2" d="M241,120A120,120,0,1,0,361,240,120,120,0,0,0,241,120ZM229,335.16A95.86,95.86,0,0,1,145,240a97.41,97.41,0,0,1,2.52-21.48L205,276v12a24.07,24.07,0,0,0,24,24Zm82.8-30.48A23.81,23.81,0,0,0,289,288H277V252a12,12,0,0,0-12-12H193V216h24a12,12,0,0,0,12-12V180h24a24.07,24.07,0,0,0,24-24v-4.92a95.79,95.79,0,0,1,34.8,153.6Z"/>
</svg>
